<?xml version="1.0" encoding="UTF-8"?>
<svg id="Layer_1" xmlns="http://www.w3.org/2000/svg" xmlns:xlink="http://www.w3.org/1999/xlink" version="1.1" viewBox="0 0 1000 1000">
  <!-- Generator: Adobe Illustrator 29.6.1, SVG Export Plug-In . SVG Version: 2.1.1 Build 9)  -->
  <defs>
    <style>
      .st0 {
        fill: url(#linear-gradient);
      }

      .st1 {
        fill: #d65f2f;
      }

      .st2 {
        fill: #3b4a36;
      }

      .st3 {
        fill: #d42628;
      }

      .st4 {
        fill: #040303;
      }
    </style>
    <linearGradient id="linear-gradient" x1="720.4" y1="639.3" x2="720.4" y2="264.2" gradientUnits="userSpaceOnUse">
      <stop offset="0" stop-color="#c0bebe"/>
      <stop offset="1" stop-color="#ececec"/>
    </linearGradient>
  </defs>
  <rect class="st2" x=".4" y=".6" width="999.6" height="999.6"/>
  <g>
    <path class="st3" d="M240.1,107.6v119.3l248.2,190.9s10.5,6.7,22,0c11.5-6.7,250.1-190.9,250.1-190.9v-119.3l-252.9,200.4s-2.9,6.7-14.3,0c-11.5-6.7-252.9-200.4-252.9-200.4Z"/>
    <polygon class="st4" points="240.1 264.2 240.1 893.1 313.6 832.1 313.6 322.8 240.1 264.2"/>
    <polygon class="st0" points="680.4 631.6 680.4 325.6 760.3 264.2 760.3 578.7 680.4 639.3 680.4 631.6"/>
    <path class="st1" d="M760.3,732.5v-153.8l-154.9,110.9-186.4,140s12.1,12.1,257.7-172.4l5.4-.2v15.3l78.3,60.3Z"/>
  </g>
</svg>